<?xml version="1.0" encoding="utf-8"?>
<svg viewBox="0 0 500 500" xmlns="http://www.w3.org/2000/svg" xmlns:bx="https://boxy-svg.com">
  <defs>
    <linearGradient gradientUnits="userSpaceOnUse" x1="378.652" y1="185.844" x2="378.652" y2="244.212" id="gradient-1" gradientTransform="matrix(0.011932, 0.958463, -0.534389, 0.009856, 480.035075, -148.166002)">
      <stop offset="0" style="stop-color: rgba(243, 221, 211, 1)"/>
      <stop offset="1" style="stop-color: rgba(221, 159, 131, 1)"/>
    </linearGradient>
    <linearGradient gradientUnits="userSpaceOnUse" x1="205.865" y1="163.491" x2="205.865" y2="202.069" id="gradient-9" gradientTransform="matrix(0.98813, 0.15362, -0.193993, 1.247821, 41.64365, -81.701965)">
      <stop offset="0" style="stop-color: rgb(227, 243, 255);"/>
      <stop offset="1" style="stop-color: rgba(212, 251, 255, 0);"/>
    </linearGradient>
    <linearGradient gradientUnits="userSpaceOnUse" x1="205.865" y1="163.491" x2="205.865" y2="202.069" id="gradient-10" gradientTransform="matrix(0.988129, 0.15362, -0.193993, 1.24782, 41.643708, -81.701803)">
      <stop offset="0" style="stop-color: rgb(227, 243, 255);"/>
      <stop offset="1" style="stop-color: rgba(212, 251, 255, 0);"/>
    </linearGradient>
  </defs>
  <g style="" transform="matrix(1.934241, 0, 0, 1.832171, -235.349045, -132.860443)">
    <path style="stroke: rgb(0, 0, 0); fill: rgb(116, 50, 24);" d="M 180.155 275.7 C 180.155 275.7 193.384 266.507 193.304 259.207 C 192.989 230.568 186.335 212.002 188.501 187.252 C 191.268 155.666 231.965 127.806 231.965 127.806 C 231.965 127.806 274.516 121.104 294.006 140.921 C 308.264 155.419 319.148 185.27 316.931 202.509 C 313.716 227.517 313.117 239.238 313.291 253.509 C 313.751 291.238 320.032 288.359 315.224 284.453 L 288.695 276.568 L 180.155 275.7 Z"/>
    <g>
      <path style="stroke: rgb(0, 0, 0); fill: rgb(73, 117, 167);" transform="matrix(0.575984, 1.336768, -1.466198, 0.631753, 558.803162, -153.995499)" d="M 184.016 288.084 A 33.959 33.959 0 0 1 184.016 322.554 A 17.89 17.89 0 0 1 184.016 288.084 Z" bx:shape="crescent 154.756 305.319 33.959 61 0.738 1@b9c54101"/>
      <path style="stroke: rgb(0, 0, 0); fill: rgb(73, 117, 167);" transform="matrix(-0.35481, 1.411672, -1.548354, -0.389163, 834.130493, 144.455902)" d="M 183.711 287.575 A 33.959 33.959 0 0 1 183.711 323.063 A 18.447 18.447 0 0 1 183.711 287.575 Z" bx:shape="crescent 154.756 305.319 33.959 63 0.729 1@13c116e4"/>
      <ellipse style="stroke: rgb(0, 0, 0); fill: rgb(73, 117, 167);" cx="256.783" cy="292.798" rx="54.687" ry="32.555"/>
    </g>
    <path style="fill: url(#gradient-1); stroke: rgb(12, 12, 12); stroke-width: 1.90091px;" transform="matrix(0.023375, 0.561566, -0.554828, 0.027884, 367.116272, 49.970226)" d="M 367.251 185.844 A 30.077 30.077 0 0 1 367.251 244.212 A 91.943 91.943 0 0 0 367.251 185.844 Z" bx:shape="crescent 359.975 215.028 30.077 152 0.7 1@7a6eaab7"/>
    <ellipse style="fill: rgb(240, 219, 209);" cx="254.507" cy="199.798" rx="56.003" ry="66.281"/>
    <path d="M 260.436 149.169 C 240.414 149.169 269.296 144.275 250.125 150.427 C 247.808 151.171 256.128 155.929 249.631 152.507 C 243.797 149.434 207.718 177.667 209.512 181.148 C 209.512 181.148 203.889 205.124 198.871 210.611 C 195.968 213.787 193.796 218.017 190.88 221.196 C 190.215 221.921 201.88 210.021 201.483 208.996 C 200.915 207.527 198.579 201.129 198.579 199.476 C 198.579 192.813 189.88 204.274 190.512 197.664 C 190.512 197.664 192.149 183.473 194.833 174.962 C 198.261 164.1 213.083 151.401 220.431 145.341 C 226.153 140.621 222.165 139.934 228.747 137.193 C 242.576 131.431 269.734 131.159 272.376 131.687 C 275.335 132.279 278.301 132.443 281.106 133.927 C 283.958 135.433 298.093 153.053 300.635 155.525 C 305.315 160.075 313.463 193.798 314.677 197.994" style="fill: rgb(116, 50, 24);"/>
    <ellipse style="fill: rgb(249, 227, 217);" cx="101.479" cy="177.914" rx="9.064" ry="11.839" transform="matrix(0.982884, 0.184228, -0.355893, 0.950707, 275.698176, 17.620192)"/>
    <path style="fill: rgb(116, 50, 24); stroke: rgb(0, 0, 0);" d="M 251.005 138.191 C 250.894 138.191 250.661 159.387 261.066 168.465 C 271.373 177.458 280.104 171.598 299.472 191.231 C 307.79 206.589 302.68 228.314 302.68 228.314 C 302.68 228.314 308.669 212.619 311.384 192.879"/>
    <ellipse style="fill: rgb(249, 227, 217);" cx="101.479" cy="177.914" rx="9.064" ry="11.839" transform="matrix(-0.982884, 0.184228, 0.355893, 0.950707, 234.598806, 19.52393)"/>
    <g transform="matrix(1, 0, 0, 1, 22.09491, 65.982803)"/>
    <g style="" transform="matrix(0.714494, 0, 0, 0.781311, -155.792755, 118.144279)"/>
    <g transform="matrix(1.161656, 0, 0, 1, -8.382974, 69.327576)" style=""/>
    <g transform="matrix(-1.143777, 0, 0, 1, 515.618286, 67.853722)" style=""/>
    <path style="" transform="matrix(0.013361, -0.9982, 0.763252, 0.010216, 19.545052, 406.237427)" d="M 197.18 267.506 A 7.652 7.652 0 0 1 197.18 281.888 A 9.875 9.875 0 0 0 197.18 267.506 Z" bx:shape="crescent 194.563 274.697 7.652 140 0.874 1@e39bca6a"/>
    <path style="" transform="matrix(0.018061, -0.998118, 0.763195, 0.014221, 65.966095, 404.81543)" d="M 197.18 267.506 A 7.652 7.652 0 0 1 197.18 281.888 A 9.875 9.875 0 0 0 197.18 267.506 Z" bx:shape="crescent 194.563 274.697 7.652 140 0.874 1@e39bca6a"/>
    <path style="" transform="matrix(0.019272, 1.439744, 1.617644, -0.021652, -192.81131, -39.401127)" d="M 195.097 267.064 A 7.652 7.652 0 0 1 195.097 282.33 A 27.164 27.164 0 0 0 195.097 267.064 Z" bx:shape="crescent 194.563 274.697 7.652 172 0.606 1@c8428d84"/>
    <path style="fill: rgb(116, 50, 24);" transform="matrix(-0.106245, -0.994394, 1.508617, -0.144552, -162.613647, 435.377228)" d="M 197.18 267.506 A 7.652 7.652 0 0 1 197.18 281.888 A 9.875 9.875 0 0 0 197.18 267.506 Z" bx:shape="crescent 194.563 274.697 7.652 140 0.874 1@e39bca6a"/>
    <path style="stroke: rgb(0, 0, 0); fill: rgb(116, 50, 24);" d="M 249.723 145.516 C 249.32 146.47 256.002 154.278 248.491 155.772 C 238.096 157.84 224.464 161.657 216.141 175.033 C 205.319 192.426 198.146 225.745 214.944 247.405 C 200.521 247.676 188.385 186.248 202.221 176.105"/>
    <path style="fill: rgb(116, 50, 24);" transform="matrix(0.137806, -0.990291, 1.503049, 0.19638, -160.570679, 339.799957)" d="M 197.18 267.506 A 7.652 7.652 0 0 1 197.18 281.888 A 9.875 9.875 0 0 0 197.18 267.506 Z" bx:shape="crescent 194.563 274.697 7.652 140 0.874 1@e39bca6a"/>
    <g transform="matrix(0.996586, -0.082564, 0.082564, 0.996586, 2.099246, 84.530304)">
      <g transform="matrix(0.968245, 0.014714, -0.016959, 1.115956, 10.794059, -34.859741)" style="">
        <g transform="matrix(1.027366, 0, 0, 0.958875, 172.793793, 5.569037)" style=""/>
      </g>
    </g>
    <path style="fill: rgb(216, 216, 216); stroke: rgb(0, 0, 0); stroke-width: 2.65505px;" d="M 295.883 202.615 L 303.324 206.931" transform="matrix(-0.666354, 0.787175, -0.706288, -0.666354, 643.874252, 105.383943)"/>
  </g>
  <path style="fill: rgb(216, 216, 216); stroke: rgb(0, 0, 0); stroke-width: 5px;" d="M 163.63 239.161 L 177.747 247.089"/>
  <path style="fill: rgb(216, 216, 216);" d="M 127.28 290.887"/>
  <rect x="173.824" y="163.491" width="64.082" height="38.578" style="stroke: rgb(1, 1, 1); stroke-width: 4px; fill: url(#gradient-9);" rx="4.649" ry="4.649" transform="matrix(0.999863, -0.016568, 0.016568, 0.999863, 2.079098, 78.412216)"/>
  <rect x="173.824" y="163.491" width="64.082" height="38.578" style="stroke: rgb(1, 1, 1); stroke-width: 4px; fill: url(#gradient-10);" rx="4.649" ry="4.649" transform="matrix(-0.999975, 0.00712, 0.00712, 0.999975, 509.518191, 72.709343)"/>
  <path style="stroke: rgb(0, 0, 0); fill: none; stroke-width: 4px; stroke-linecap: round;" d="M 243.11 261.102 C 242.572 251.867 274.022 252.045 272.893 260.845"/>
  <path style="fill: rgb(73, 117, 167);" d="M 153.757 411.283 C 125.643 400.468 184.372 347.126 204.461 354.854"/>
  <path style="fill: rgb(73, 117, 167);" d="M 329.119 354.35 C 301.005 365.165 359.734 418.507 379.823 410.779" transform="matrix(-1, 0, 0, -1, 701.4599, 765.891052)"/>
  <g style="" transform="matrix(1.614781, 0, 0, 1.529568, -301.402161, 189.198334)">
    <g transform="matrix(1, 0, 0, 1, 22.09491, 65.982803)"/>
    <g style="" transform="matrix(0.714494, 0, 0, 0.781311, -155.792755, 118.144279)"/>
    <g transform="matrix(1.161656, 0, 0, 1, -8.382974, 69.327576)" style=""/>
    <g transform="matrix(-1.143777, 0, 0, 1, 515.618286, 67.853722)" style=""/>
    <g transform="matrix(0.996586, -0.082564, 0.082564, 0.996586, 2.099246, 84.530304)">
      <g transform="matrix(0.968245, 0.014714, -0.016959, 1.115956, 10.794059, -34.859741)" style="">
        <g transform="matrix(1.027366, 0, 0, 0.958875, 172.793793, 5.569037)" style=""/>
      </g>
    </g>
    <g style="" transform="matrix(0.741823, 0, 0, 0.741823, 76.705765, 55.597664)">
      <g transform="matrix(1, 0, 0, 1, 22.09491, 65.982803)"/>
      <g style="" transform="matrix(0.714494, 0, 0, 0.781311, -155.792755, 118.144279)"/>
      <g transform="matrix(1.161656, 0, 0, 1, -8.382974, 69.327576)" style=""/>
      <g transform="matrix(-1.143777, 0, 0, 1, 515.618286, 67.853722)" style=""/>
      <g transform="matrix(0.996586, -0.082564, 0.082564, 0.996586, 2.099246, 84.530304)">
        <g transform="matrix(0.968245, 0.014714, -0.016959, 1.115956, 10.794059, -34.859741)" style="">
          <g transform="matrix(1.027366, 0, 0, 0.958875, 172.793793, 5.569037)" style=""/>
        </g>
      </g>
      <circle style="stroke: rgb(0, 0, 0); fill: none; stroke-width: 13.5141px;" transform="matrix(1.66469, 0, 0, 1.75743, 13.729033, -478.373749)" cx="209.94688415527344" cy="263.4750061035156" r="98.49516986487117"/>
    </g>
  </g>
  <path style="fill: rgb(216, 216, 216); stroke: rgb(0, 0, 0);" d="M 211.005 388.021 L 211.181 388.375"/>
  <path style="fill: rgb(216, 216, 216); stroke: rgb(0, 0, 0); stroke-linecap: round; stroke-width: 3px;" d="M 185.388 437.487 L 187.16 416.653" transform="matrix(0.996813, 0.079771, -0.079771, 0.996813, 34.661427, -13.498287)"/>
  <path style="fill: rgb(216, 216, 216); stroke: rgb(0, 0, 0); stroke-linecap: round; stroke-width: 3px;" d="M 344.28 432.7 L 337.692 412.663"/>
  <path style="fill: rgb(216, 216, 216); stroke: rgb(0, 0, 0);" d="M 433.712 446.088"/>
</svg>