<?xml version="1.0" encoding="utf-8"?>
<svg viewBox="0 0 500 500" xmlns="http://www.w3.org/2000/svg" xmlns:bx="https://boxy-svg.com">
  <defs>
    <linearGradient gradientUnits="userSpaceOnUse" x1="234.766" y1="132.794" x2="234.766" y2="199.082" id="gradient-1" gradientTransform="matrix(-0.999885, 0.01526, -0.0079, -0.517604, 495.112396, 326.857269)">
      <stop offset="0" style="stop-color: rgb(255, 251, 246);"/>
      <stop offset="1" style="stop-color: rgb(240, 219, 209);"/>
    </linearGradient>
    <linearGradient gradientUnits="userSpaceOnUse" x1="170.411" y1="296.784" x2="170.411" y2="368.36" id="gradient-0" gradientTransform="matrix(-0.325542, 1.499768, -0.18738, 0.081184, 294.002892, 68.59499)">
      <stop offset="0" style="stop-color: rgba(240, 219, 209, 1)"/>
      <stop offset="1" style="stop-color: rgb(252, 244, 238);"/>
    </linearGradient>
    <linearGradient gradientUnits="userSpaceOnUse" x1="174.596" y1="299.179" x2="174.596" y2="370.755" id="gradient-2" gradientTransform="matrix(0.105949, 1.656573, -0.203881, 0.253884, 226.260394, -26.700501)">
      <stop offset="0" style="stop-color: rgba(240, 219, 209, 1)"/>
      <stop offset="1" style="stop-color: rgb(255, 251, 246);"/>
    </linearGradient>
    <radialGradient gradientUnits="userSpaceOnUse" cx="577.578" cy="256.983" r="76.006" id="gradient-4">
      <stop offset="0" style="stop-color: rgba(156, 255, 235, 0.71)"/>
      <stop offset="1" style="stop-color: rgb(201, 240, 232);"/>
    </radialGradient>
    <linearGradient gradientUnits="userSpaceOnUse" x1="59.302" y1="252.956" x2="59.302" y2="272.342" id="gradient-3">
      <stop offset="0" style="stop-color: rgba(0, 187, 190, 1)"/>
      <stop offset="1" style="stop-color: rgba(0, 87, 88, 1)"/>
    </linearGradient>
    <linearGradient gradientUnits="userSpaceOnUse" x1="59.302" y1="253.8" x2="59.302" y2="271.498" id="gradient-5">
      <stop offset="0" style="stop-color: rgba(0, 187, 190, 1)"/>
      <stop offset="1" style="stop-color: rgba(0, 87, 88, 1)"/>
    </linearGradient>
    <linearGradient gradientUnits="userSpaceOnUse" x1="239.497" y1="245.389" x2="239.497" y2="251.29" id="gradient-6">
      <stop offset="0" style="stop-color: rgba(0, 187, 190, 1)"/>
      <stop offset="1" style="stop-color: rgba(0, 87, 88, 1)"/>
    </linearGradient>
    <linearGradient gradientUnits="userSpaceOnUse" x1="237.288" y1="245.915" x2="237.288" y2="249.887" id="gradient-7">
      <stop offset="0" style="stop-color: rgba(0, 187, 190, 1)"/>
      <stop offset="1" style="stop-color: rgba(0, 87, 88, 1)"/>
    </linearGradient>
    <linearGradient gradientUnits="userSpaceOnUse" x1="234.401" y1="246.569" x2="234.401" y2="250.352" id="gradient-8">
      <stop offset="0" style="stop-color: rgba(0, 187, 190, 1)"/>
      <stop offset="1" style="stop-color: rgba(0, 87, 88, 1)"/>
    </linearGradient>
  </defs>
  <g style="" transform="matrix(1.934241, 0, 0, 1.832171, -238.199066, -210.608704)">
    <path style="stroke: rgb(0, 0, 0); fill: rgb(116, 50, 24);" d="M 176.127 275.7 C 176.127 275.7 190.327 266.507 190.241 259.207 C 189.903 230.568 182.76 212.002 185.086 187.252 C 188.055 155.666 231.74 127.806 231.74 127.806 C 231.74 127.806 277.416 121.104 298.337 140.921 C 313.641 155.419 327.241 184.138 324.862 201.377 C 321.41 226.385 318.85 239.238 319.037 253.509 C 319.531 291.238 326.273 288.359 321.112 284.453 L 292.636 276.568 L 176.127 275.7 Z"/>
    <ellipse style="fill: rgb(240, 219, 209);" cx="256.369" cy="199.798" rx="65.045" ry="66.281"/>
    <ellipse style="" cx="256.783" cy="303.965" rx="54.687" ry="49.589"/>
    <path style="fill: rgb(249, 239, 233);" transform="matrix(-0.018943, 0.561752, -0.555173, -0.018721, 383.214386, 59.921242)" d="M 367.251 185.844 A 30.077 30.077 0 0 1 367.251 244.212 A 91.943 91.943 0 0 0 367.251 185.844 Z" bx:shape="crescent 359.975 215.028 30.077 152 0.7 1@7a6eaab7"/>
    <ellipse style="paint-order: fill; fill: url(#gradient-1);" cx="256.861" cy="231.921" rx="47.104" ry="34.221"/>
    <path d="M 245.585 165.236 C 225.563 165.236 263.786 156.588 244.615 162.74 C 242.298 163.484 240.326 176.209 235.371 181.628 C 232.652 184.601 217.124 191.83 214.435 194.77 C 209.406 200.265 203.889 205.124 198.871 210.611 C 195.968 213.787 193.796 218.017 190.88 221.196 C 190.215 221.921 189.537 222.786 188.833 223.433 C 188.316 223.909 187.524 224.305 186.925 224.594 C 186.22 224.934 201.88 210.021 201.483 208.996 C 200.915 207.527 186.284 219.131 186.284 217.478 C 186.284 210.815 189.88 204.274 190.512 197.664 C 190.512 197.664 189.628 181.225 192.312 172.714 C 195.74 161.852 198.723 156.92 206.071 150.86 C 211.793 146.14 222.165 139.934 228.747 137.193 C 242.576 131.431 269.734 131.159 272.376 131.687 C 275.335 132.279 278.301 132.443 281.106 133.927 C 283.958 135.433 303.097 151.58 305.639 154.052 C 310.319 158.602 316.566 168.156 317.78 172.352 C 321.607 185.582 322.449 212.265 322.449 213.258" style="fill: rgb(116, 50, 24);"/>
    <ellipse style="fill: rgb(249, 227, 217);" cx="101.479" cy="177.914" rx="9.064" ry="11.839" transform="matrix(0.982884, 0.184228, -0.355893, 0.950707, 279.77331, 35.030834)"/>
    <path style="stroke: rgba(0, 0, 0, 0.66); fill: rgb(116, 50, 24);" d="M 248.245 138.547 C 248.134 138.547 257.167 180.455 265.389 191.118 C 274.038 201.716 281.393 189.83 300.761 209.463 C 309.079 224.821 300.186 234.144 300.186 234.144 C 300.186 234.144 317.343 228.785 320.058 209.045"/>
    <ellipse style="fill: rgb(249, 227, 217);" cx="101.479" cy="177.914" rx="9.064" ry="11.839" transform="matrix(-0.982884, 0.184228, 0.355893, 0.950707, 225.580785, 29.912071)"/>
    <path style="stroke: rgb(0, 0, 0); fill: rgb(116, 50, 24);" d="M 250.53 147.943 C 250.138 148.897 262.331 183.928 255.011 185.422 C 226.061 191.332 183.542 212.474 211.456 246.179 C 195.519 249.315 178.034 203.348 197.775 183.678"/>
    <path style="fill: url(#gradient-0);" transform="matrix(-0.896393, -0.109897, -0.296551, 0.640359, 463.554077, 100.434738)" d="M 152.054 296.796 A 35.788 35.788 0 1 1 152.054 368.348 A 39.286 39.286 0 0 0 152.054 296.796 Z" bx:shape="crescent 152.991 332.572 35.788 183 0.809 1@183b8f61"/>
    <path style="" transform="matrix(0.575984, 1.336768, -1.466198, 0.631753, 558.803162, -153.995499)" d="M 184.016 288.084 A 33.959 33.959 0 0 1 184.016 322.554 A 17.89 17.89 0 0 1 184.016 288.084 Z" bx:shape="crescent 154.756 305.319 33.959 61 0.738 1@b9c54101"/>
    <path style="fill: url(#gradient-2);" transform="matrix(1.139683, -0.139724, 0.26718, 0.576937, 16.006954, 127.877151)" d="M 152.054 296.796 A 35.788 35.788 0 1 1 152.054 368.348 A 39.286 39.286 0 0 0 152.054 296.796 Z" bx:shape="crescent 152.991 332.572 35.788 183 0.809 1@183b8f61"/>
    <path style="" transform="matrix(-0.35481, 1.411672, -1.548354, -0.389163, 834.130493, 144.455902)" d="M 183.711 287.575 A 33.959 33.959 0 0 1 183.711 323.063 A 18.447 18.447 0 0 1 183.711 287.575 Z" bx:shape="crescent 154.756 305.319 33.959 63 0.729 1@13c116e4"/>
    <g transform="matrix(1, 0, 0, 1, 22.09491, 65.982803)">
      <ellipse style="fill: rgb(3, 9, 117);" cx="235.259" cy="281.994" rx="48.149" ry="22.871"/>
      <rect x="95.901" y="433.346" width="34.492" height="51.968" style="fill: rgb(3, 9, 117);" transform="matrix(0.715364, 0.698752, -0.988706, 0.432143, 571.170837, 23.020861)" rx="16.096" ry="16.096"/>
      <rect x="-95.901" y="-433.346" width="34.492" height="51.968" style="fill: rgb(3, 9, 117);" transform="matrix(-0.715364, 0.698752, 0.988706, 0.432143, 614.523618, 529.800292)" rx="16.096" ry="16.096"/>
    </g>
    <g style="" transform="matrix(0.714494, 0, 0, 0.781311, -155.792755, 118.144279)">
      <rect x="501.573" y="217.712" width="152.011" height="78.541" style="fill: rgb(216, 216, 216); stroke-opacity: 0.56; stroke-width: 2.67415px; stroke: url(#gradient-4);" rx="6.329" ry="6.329"/>
      <rect x="507.546" y="295.792" width="140.393" height="4.342" style="fill: rgb(96, 96, 96);"/>
      <rect x="501.381" y="298.324" width="152.011" height="7.303" style="fill: rgb(216, 216, 216);" rx="2.26" ry="2.26"/>
      <rect x="507.73" y="294.397" width="139.701" height="1.095" style="fill: rgb(96, 96, 96);" rx="2.26" ry="2.26"/>
    </g>
    <g transform="matrix(1.161656, 0, 0, 1, -8.382974, 69.327576)" style="">
      <path style="fill: rgb(241, 221, 211);" d="M 194.932 311.799 C 192.379 318.296 183.5 317.376 179.239 314.856 C 171.116 310.052 170.817 289.881 170.817 289.881 C 170.817 289.881 167.509 275.94 172.887 272.041 C 177.733 268.528 190.109 270.531 190.109 270.531 C 190.109 270.531 193.18 270.613 192.941 276.233 C 192.698 281.949 193.556 296.519 193.556 296.519 C 193.556 296.519 196.582 307.599 194.932 311.799 Z"/>
      <ellipse style="fill: rgb(241, 221, 211);" cx="189.831" cy="268.933" rx="4.069" ry="6.377"/>
      <rect x="178.194" y="264.559" width="4.885" height="9.59" style="fill: rgb(241, 221, 211);" rx="2.957" ry="2.957" transform="matrix(0.999068, -0.043158, 0.043158, 0.999068, -9.211471, 7.026477)"/>
      <rect x="169.497" y="264.55" width="4.646" height="9.59" style="fill: rgb(241, 221, 211);" rx="2.957" ry="2.957" transform="matrix(0.990407, -0.138184, 0.129966, 0.991553, -26.835966, 25.905697)"/>
      <rect x="130.289" y="247.195" width="3.572" height="8.961" style="fill: rgb(241, 221, 211);" rx="2.957" ry="2.957" transform="matrix(0.959892, -0.28037, 0.28037, 0.959892, -22.645056, 66.848503)"/>
      <rect x="123.198" y="220.2" width="3.377" height="7.982" style="fill: rgb(241, 221, 211);" rx="2.957" ry="2.957" transform="matrix(0.945816, -0.324703, 0.324703, 0.945816, -18.489412, 102.302734)"/>
    </g>
    <g transform="matrix(-1.143777, 0, 0, 1, 515.618286, 67.853722)" style="">
      <path style="fill: rgb(241, 221, 211);" d="M 194.932 311.799 C 192.379 318.296 183.5 317.376 179.239 314.856 C 171.116 310.052 170.817 289.881 170.817 289.881 C 170.817 289.881 167.509 275.94 172.887 272.041 C 177.733 268.528 190.109 270.531 190.109 270.531 C 190.109 270.531 193.18 270.613 192.941 276.233 C 192.698 281.949 193.556 296.519 193.556 296.519 C 193.556 296.519 196.582 307.599 194.932 311.799 Z"/>
      <ellipse style="fill: rgb(241, 221, 211);" cx="189.831" cy="268.933" rx="4.069" ry="6.377"/>
      <rect x="178.194" y="264.559" width="4.885" height="9.59" style="fill: rgb(241, 221, 211);" rx="2.957" ry="2.957" transform="matrix(0.999068, -0.043158, 0.043158, 0.999068, -9.211471, 7.026477)"/>
      <rect x="169.497" y="264.55" width="4.646" height="9.59" style="fill: rgb(241, 221, 211);" rx="2.957" ry="2.957" transform="matrix(0.990407, -0.138184, 0.129966, 0.991553, -26.835966, 25.905697)"/>
      <rect x="130.289" y="247.195" width="3.572" height="8.961" style="fill: rgb(241, 221, 211);" rx="2.957" ry="2.957" transform="matrix(0.959892, -0.28037, 0.28037, 0.959892, -22.645056, 66.848503)"/>
      <rect x="123.198" y="220.2" width="3.377" height="7.982" style="fill: rgb(241, 221, 211);" rx="2.957" ry="2.957" transform="matrix(0.945816, -0.324703, 0.324703, 0.945816, -18.489412, 102.302734)"/>
    </g>
    <path style="" transform="matrix(0.013361, -0.9982, 0.763252, 0.010216, 26.736403, 427.434143)" d="M 197.18 267.506 A 7.652 7.652 0 0 1 197.18 281.888 A 9.875 9.875 0 0 0 197.18 267.506 Z" bx:shape="crescent 194.563 274.697 7.652 140 0.874 1@e39bca6a"/>
    <path style="" transform="matrix(0.013361, -0.9982, 0.763252, 0.010216, 63.668232, 426.557404)" d="M 197.18 267.506 A 7.652 7.652 0 0 1 197.18 281.888 A 9.875 9.875 0 0 0 197.18 267.506 Z" bx:shape="crescent 194.563 274.697 7.652 140 0.874 1@e39bca6a"/>
    <path style="" transform="matrix(0.009087, 0.678856, 1.617644, -0.021652, -188.834122, 117.837883)" d="M 197.18 267.506 A 7.652 7.652 0 0 1 197.18 281.888 A 9.875 9.875 0 0 0 197.18 267.506 Z" bx:shape="crescent 194.563 274.697 7.652 140 0.874 1@e39bca6a"/>
    <path style="fill: rgb(116, 50, 24);" transform="matrix(-0.2051, -0.976994, 1.485728, -0.311899, -131.288925, 502.119812)" d="M 197.18 267.506 A 7.652 7.652 0 0 1 197.18 281.888 A 9.875 9.875 0 0 0 197.18 267.506 Z" bx:shape="crescent 194.563 274.697 7.652 140 0.874 1@e39bca6a"/>
    <path style="fill: rgb(116, 50, 24);" transform="matrix(0.214231, -0.975033, 1.482744, 0.325784, -170.911011, 327.720367)" d="M 197.18 267.506 A 7.652 7.652 0 0 1 197.18 281.888 A 9.875 9.875 0 0 0 197.18 267.506 Z" bx:shape="crescent 194.563 274.697 7.652 140 0.874 1@e39bca6a"/>
    <g transform="matrix(0.996586, -0.082564, 0.082564, 0.996586, 2.099246, 84.530304)">
      <g transform="matrix(0.968245, 0.014714, -0.016959, 1.115956, 10.794059, -34.859741)" style="">
        <g transform="matrix(1.027366, 0, 0, 0.958875, 172.793793, 5.569037)" style="">
          <ellipse style="fill: url(#gradient-3);" cx="59.302" cy="262.649" rx="9.087" ry="9.693" transform="matrix(0.952188, -0.305513, 0.305513, 0.952188, -77.407248, 30.675399)"/>
          <ellipse style="fill: url(#gradient-5);" cx="59.302" cy="262.649" rx="9.186" ry="8.849" transform="matrix(0.877303, -0.479937, 0.311118, 0.969657, -68.692306, 36.719444)"/>
        </g>
        <path d="M 237.268 249.985 C 237.25 249.309 237.062 248.382 237.207 247.72 C 237.301 247.292 237.673 247.109 237.947 246.822 C 238.655 246.076 239.764 245.777 240.765 245.649 C 241.12 245.603 241.485 245.389 241.828 245.389 C 241.886 245.389 241.751 245.473 241.711 245.515 C 241.635 245.595 241.567 245.69 241.503 245.78 C 241.304 246.061 241.098 246.339 240.897 246.614 C 240.323 247.394 239.742 248.038 239.076 248.736 C 238.849 248.975 238.615 249.248 238.501 249.568 C 238.44 249.741 238.439 250.019 238.307 250.155 C 238.04 250.434 237.818 250.407 237.532 250.553 C 237.372 250.635 237.292 250.856 237.297 251.023 C 237.298 251.106 237.294 251.356 237.292 251.273 C 237.29 251.171 237.287 251.068 237.284 250.967 C 237.282 250.909 237.299 249.898 237.265 249.898" style="stroke-width: 0px; fill: url(#gradient-6);" transform="matrix(0.883064, 0.469252, -0.469252, 0.883064, 144.539564, -83.3449)"/>
        <path style="fill: url(#gradient-7);" d="M 235.835 249.291 C 236.684 248.581 237.145 245.915 237.145 245.915 L 238.765 246.164 C 238.644 246.027 236.886 248.124 236.489 249.695 C 236.347 250.257 235.677 249.421 235.835 249.291 Z" transform="matrix(0.9774, -0.211397, 0.211397, 0.9774, -47.042927, 55.764492)"/>
        <path d="M 233.205 247.021 C 233.191 247.51 233.085 248.182 233.16 248.662 C 233.208 248.973 233.411 249.105 233.558 249.313 C 233.94 249.854 234.541 250.071 235.084 250.163 C 235.277 250.197 235.474 250.352 235.661 250.352 C 235.692 250.352 235.619 250.291 235.598 250.261 C 235.558 250.203 235.521 250.133 235.487 250.068 C 235.38 249.865 235.269 249.662 235.161 249.463 C 234.853 248.898 234.54 248.432 234.182 247.926 C 234.059 247.753 233.933 247.555 233.873 247.322 C 233.84 247.198 233.391 246.871 233.394 246.75 C 233.395 246.691 233.269 246.513 233.267 246.586 C 233.266 246.629 233.222 247.084 233.202 247.084" style="stroke-width: 0px; fill: url(#gradient-8);" transform="matrix(-0.883064, 0.469252, -0.469252, -0.883064, 557.98266, 357.873638)"/>
      </g>
    </g>
  </g>
  <path style="fill: rgb(216, 216, 216);" d="M 127.28 290.887"/>
</svg>