<?xml version="1.0" encoding="utf-8"?>
<svg viewBox="0 0 500 500" xmlns="http://www.w3.org/2000/svg" xmlns:bx="https://boxy-svg.com">
  <g style="" transform="matrix(1.963541, 0, 0, 2.07093, -200.429855, -472.99176)">
    <g transform="matrix(0.978804, 0.2048, -0.2048, 0.978804, 204.877258, 87.722382)">
      <g style="" transform="matrix(4.444878, 0, 0, 4.351665, -318.330322, -646.590881)">
        <path style="fill: rgb(255, 250, 162);" transform="matrix(0.857773, 0.245775, -0.29294, 0.606758, -90.912186, 51.706848)" d="M 242.984 131.386 A 5.414 5.414 0 0 1 242.984 137.52 A 3.758 3.758 0 0 1 242.984 131.386 Z" bx:shape="crescent 238.522 134.453 5.414 69 0.766 1@7d662fba"/>
        <path d="M 90.881 189.737 C 88.647 188.406 87.596 186.711 87.186 184.543 C 87.081 183.991 86.791 182.747 87.615 182.421 C 87.704 182.385 87.787 183.215 87.831 183.317 C 88.093 183.912 88.48 184.484 88.758 185.077 C 89.447 186.541 91.716 187.596 93.031 188.654 C 93.229 188.812 94.357 189.598 94.748 189.319 C 94.927 189.192 95.032 187.879 95.166 187.645 C 96.14 185.947 97.447 184.076 98.92 182.614 C 99.014 182.522 100.106 181.027 100.355 181.161 C 101.108 181.564 99.619 182.508 99.38 183.213 C 98.756 185.048 98.516 186.986 98.109 188.845 C 98.049 189.117 97.467 190.695 97.663 190.891 C 97.868 191.094 99.973 190.891 100.245 190.891 C 102.493 190.891 106.307 190.78 108.31 189.784 C 108.857 189.511 110.447 186.731 110.548 186.785 C 110.95 186.996 110.178 188.458 110.105 188.702 C 109.666 190.163 106.602 193.691 104.56 193.691 C 104.145 193.691 105.39 193.783 105.758 193.93 C 106.067 194.053 109.599 195.33 109.374 195.489 C 108.653 196.001 106.419 195.678 105.495 195.678 C 105.057 195.678 103.642 195.324 103.983 195.324" style="stroke: rgb(0, 0, 0); fill: rgb(63, 133, 41);" transform="matrix(1.000175, -0.010765, 0.011375, 0.999702, -2.161196, 1.120262)"/>
        <path d="M 94.501 190.279 C 90.398 189.813 80.662 186.113 76.76 189.776 C 70.763 195.405 71.984 197.726 71.82 205.087 C 71.79 206.401 70.342 224.539 71.358 225.151 C 72.391 225.774 82.893 228.599 83.779 229.312 C 85.795 230.934 94.615 223.416 103.673 215.597 C 110.676 209.554 110.676 200.815 109.496 199.866 C 105.129 196.351 101.209 190.278 94.338 190.278" style="stroke: rgb(0, 0, 0); fill: rgb(216, 33, 49);" transform="matrix(1.000175, -0.010765, 0.011375, 0.999702, -2.391672, 1.036797)"/>
        <path style="fill: rgb(255, 250, 162);" transform="matrix(0.857773, 0.245775, -0.29294, 0.606758, -85.686691, 61.764595)" d="M 242.984 131.386 A 5.414 5.414 0 0 1 242.984 137.52 A 3.758 3.758 0 0 1 242.984 131.386 Z" bx:shape="crescent 238.522 134.453 5.414 69 0.766 1@7d662fba"/>
        <path style="fill: rgb(255, 250, 162);" transform="matrix(0.857773, 0.245775, -0.29294, 0.606758, -74.758606, 57.84103)" d="M 242.984 131.386 A 5.414 5.414 0 0 1 242.984 137.52 A 3.758 3.758 0 0 1 242.984 131.386 Z" bx:shape="crescent 238.522 134.453 5.414 69 0.766 1@7d662fba"/>
        <path style="fill: rgb(255, 250, 162);" transform="matrix(0.857773, 0.245775, -0.29294, 0.606758, -75.396774, 73.469597)" d="M 242.984 131.386 A 5.414 5.414 0 0 1 242.984 137.52 A 3.758 3.758 0 0 1 242.984 131.386 Z" bx:shape="crescent 238.522 134.453 5.414 69 0.766 1@7d662fba"/>
        <path style="fill: rgb(255, 250, 162);" transform="matrix(0.857773, 0.245775, -0.29294, 0.606758, -88.514313, 78.135406)" d="M 242.984 131.386 A 5.414 5.414 0 0 1 242.984 137.52 A 3.758 3.758 0 0 1 242.984 131.386 Z" bx:shape="crescent 238.522 134.453 5.414 69 0.766 1@7d662fba"/>
        <path style="fill: rgb(255, 250, 162);" transform="matrix(0.857773, 0.245775, -0.29294, 0.606758, -93.729347, 67.741005)" d="M 242.984 131.386 A 5.414 5.414 0 0 1 242.984 137.52 A 3.758 3.758 0 0 1 242.984 131.386 Z" bx:shape="crescent 238.522 134.453 5.414 69 0.766 1@7d662fba"/>
        <path style="fill: rgb(255, 250, 162);" transform="matrix(0.857773, 0.245775, -0.29294, 0.606758, -64.687859, 66.253044)" d="M 242.984 131.386 A 5.414 5.414 0 0 1 242.984 137.52 A 3.758 3.758 0 0 1 242.984 131.386 Z" bx:shape="crescent 238.522 134.453 5.414 69 0.766 1@7d662fba"/>
        <path style="fill: rgb(255, 250, 162);" transform="matrix(0.857773, 0.245775, -0.29294, 0.606758, -76.867569, 51.372402)" d="M 242.984 131.386 A 5.414 5.414 0 0 1 242.984 137.52 A 3.758 3.758 0 0 1 242.984 131.386 Z" bx:shape="crescent 238.522 134.453 5.414 69 0.766 1@7d662fba"/>
        <path style="fill: rgb(255, 250, 162);" transform="matrix(0.857773, 0.245775, -0.29294, 0.606758, -90.611557, 53.647366)" d="M 242.984 131.386 A 5.414 5.414 0 0 1 242.984 137.52 A 3.758 3.758 0 0 1 242.984 131.386 Z" bx:shape="crescent 238.522 134.453 5.414 69 0.766 1@7d662fba"/>
      </g>
    </g>
  </g>
</svg>